<svg width="50" height="45" viewBox="0 0 50 45" fill="none" xmlns="http://www.w3.org/2000/svg">
<path opacity="0.5" d="M35.7142 40C43.604 40 50 33.6792 50 25.8822C50 19.7028 45.9825 14.4506 40.3877 12.5374C39.5928 5.48427 33.5397 0 26.1905 0C18.3007 0 11.9047 6.32067 11.9047 14.1177C11.9047 15.8422 12.2176 17.4945 12.7904 19.0222C12.1187 18.8918 11.4246 18.8235 10.7143 18.8235C4.79695 18.8235 0 23.564 0 29.4118C0 35.2595 4.79695 40 10.7143 40H35.7142Z" fill="#4FA0E6"/>
<path d="M40.2142 45C45.3427 45 49.5 41.0495 49.5 36.1765C49.5 32.3142 46.8885 29.0315 43.252 27.836C42.7352 23.4278 38.8007 20 34.0238 20C28.8955 20 24.738 23.9505 24.738 28.8235C24.738 29.9012 24.9415 30.934 25.3137 31.8888C24.8772 31.8075 24.426 31.7647 23.9642 31.7647C20.118 31.7647 17 34.7275 17 38.3822C17 42.0372 20.118 45 23.9642 45H40.2142Z" fill="#56B8FF"/>
</svg>
