<svg width="189" height="60" viewBox="0 0 189 60" fill="none" xmlns="http://www.w3.org/2000/svg">
<g filter="url(#filter0_d_80008_2635)">
<path d="M77.71 41.7349C75.9639 41.7349 74.3924 41.4356 72.9955 40.8369C71.5987 40.2133 70.5011 39.3403 69.7029 38.2178C68.9047 37.0953 68.5056 35.7858 68.5056 34.2891H73.0704C73.1701 35.4116 73.6067 36.3345 74.3799 37.0579C75.1781 37.7813 76.2881 38.143 77.71 38.143C79.1817 38.143 80.3291 37.7938 81.1522 37.0953C81.9754 36.372 82.387 35.449 82.387 34.3265C82.387 33.4535 82.1251 32.7426 81.6012 32.1938C81.1024 31.645 80.4663 31.221 79.693 30.9217C78.9447 30.6223 77.897 30.2981 76.5501 29.9488C74.8539 29.4999 73.4695 29.0509 72.3969 28.6019C71.3492 28.1279 70.4512 27.4046 69.7029 26.4317C68.9546 25.4589 68.5804 24.1618 68.5804 22.5404C68.5804 21.0438 68.9546 19.7342 69.7029 18.6118C70.4512 17.4893 71.4989 16.6287 72.8459 16.03C74.1928 15.4314 75.7518 15.1321 77.5229 15.1321C80.0422 15.1321 82.1001 15.7681 83.6965 17.0403C85.3179 18.2875 86.2159 20.0086 86.3905 22.2037H81.6761C81.6012 21.2558 81.1522 20.4451 80.3291 19.7717C79.5059 19.0982 78.4209 18.7614 77.0739 18.7614C75.8516 18.7614 74.8539 19.0732 74.0806 19.6968C73.3073 20.3204 72.9207 21.2184 72.9207 22.3908C72.9207 23.189 73.1577 23.85 73.6316 24.3738C74.1305 24.8727 74.7541 25.2718 75.5024 25.5712C76.2507 25.8705 77.2734 26.1948 78.5705 26.544C80.2917 27.0179 81.6885 27.4919 82.7611 27.9658C83.8587 28.4397 84.7816 29.1756 85.5299 30.1733C86.3032 31.1462 86.6898 32.4557 86.6898 34.102C86.6898 35.4241 86.3281 36.6713 85.6048 37.8437C84.9063 39.016 83.8712 39.9639 82.4992 40.6873C81.1522 41.3857 79.5558 41.7349 77.71 41.7349ZM96.6992 24.3364V35.7484C96.6992 36.5216 96.8738 37.0829 97.2231 37.4321C97.5972 37.7564 98.2208 37.9185 99.0939 37.9185H101.713V41.473H98.3455C96.4249 41.473 94.9532 41.024 93.9304 40.126C92.9077 39.2281 92.3964 37.7688 92.3964 35.7484V24.3364H89.9643V20.8567H92.3964V15.7307H96.6992V20.8567H101.713V24.3364H96.6992ZM114.587 41.8098C112.641 41.8098 110.883 41.3732 109.311 40.5002C107.74 39.6022 106.505 38.355 105.607 36.7586C104.709 35.1372 104.26 33.2664 104.26 31.1462C104.26 29.0509 104.721 27.1925 105.644 25.5712C106.567 23.9498 107.827 22.7026 109.423 21.8295C111.02 20.9565 112.803 20.52 114.774 20.52C116.744 20.52 118.528 20.9565 120.124 21.8295C121.721 22.7026 122.98 23.9498 123.903 25.5712C124.826 27.1925 125.288 29.0509 125.288 31.1462C125.288 33.2415 124.814 35.0998 123.866 36.7212C122.918 38.3425 121.621 39.6022 119.975 40.5002C118.353 41.3732 116.557 41.8098 114.587 41.8098ZM114.587 38.1056C115.684 38.1056 116.707 37.8437 117.655 37.3198C118.628 36.796 119.413 36.0103 120.012 34.9626C120.611 33.915 120.91 32.6428 120.91 31.1462C120.91 29.6495 120.623 28.3898 120.05 27.3671C119.476 26.3195 118.715 25.5337 117.767 25.0099C116.819 24.4861 115.797 24.2242 114.699 24.2242C113.601 24.2242 112.579 24.4861 111.631 25.0099C110.708 25.5337 109.972 26.3195 109.423 27.3671C108.875 28.3898 108.6 29.6495 108.6 31.1462C108.6 33.3662 109.161 35.0873 110.284 36.3096C111.431 37.5069 112.866 38.1056 114.587 38.1056ZM133.77 23.85C134.393 22.8024 135.217 21.9917 136.239 21.418C137.287 20.8193 138.522 20.52 139.944 20.52V24.9351H138.858C137.187 24.9351 135.915 25.3591 135.042 26.2072C134.194 27.0553 133.77 28.527 133.77 30.6223V41.473H129.504V20.8567H133.77V23.85ZM146.034 18.1253C145.261 18.1253 144.613 17.8634 144.089 17.3396C143.565 16.8158 143.303 16.1672 143.303 15.394C143.303 14.6207 143.565 13.9722 144.089 13.4483C144.613 12.9245 145.261 12.6626 146.034 12.6626C146.783 12.6626 147.419 12.9245 147.943 13.4483C148.467 13.9722 148.728 14.6207 148.728 15.394C148.728 16.1672 148.467 16.8158 147.943 17.3396C147.419 17.8634 146.783 18.1253 146.034 18.1253ZM148.13 20.8567V41.473H143.864V20.8567H148.13ZM162.373 24.3364H158.557V41.473H154.254V24.3364H151.822V20.8567H154.254V19.3975C154.254 17.0278 154.877 15.3067 156.125 14.2341C157.397 13.1365 159.38 12.5878 162.074 12.5878V16.1423C160.777 16.1423 159.866 16.3917 159.342 16.8906C158.819 17.3646 158.557 18.2002 158.557 19.3975V20.8567H162.373V24.3364ZM184.712 20.8567L172.065 51.1638H167.65L171.841 41.1363L163.721 20.8567H168.473L174.273 36.5715L180.297 20.8567H184.712Z" fill="#56B8FF"/>
<path opacity="0.5" d="M39.7142 45C47.604 45 54 38.6792 54 30.8822C54 24.7028 49.9825 19.4506 44.3877 17.5374C43.5927 10.4843 37.5397 5 30.1905 5C22.3007 5 15.9047 11.3207 15.9047 19.1176C15.9047 20.8422 16.2176 22.4945 16.7904 24.0222C16.1187 23.8918 15.4246 23.8235 14.7143 23.8235C8.79695 23.8235 4 28.564 4 34.4117C4 40.2595 8.79695 45 14.7143 45H39.7142Z" fill="#4FA0E6"/>
<path d="M44.2142 50C49.3427 50 53.5 46.0495 53.5 41.1765C53.5 37.3142 50.8885 34.0315 47.252 32.836C46.7352 28.4278 42.8007 25 38.0237 25C32.8955 25 28.738 28.9505 28.738 33.8235C28.738 34.9012 28.9415 35.934 29.3137 36.8888C28.8772 36.8075 28.426 36.7647 27.9642 36.7647C24.118 36.7647 21 39.7275 21 43.3822C21 47.0372 24.118 50 27.9642 50H44.2142Z" fill="#56B8FF"/>
</g>
<defs>
<filter id="filter0_d_80008_2635" x="0" y="5" width="188.712" height="54.1638" filterUnits="userSpaceOnUse" color-interpolation-filters="sRGB">
<feFlood flood-opacity="0" result="BackgroundImageFix"/>
<feColorMatrix in="SourceAlpha" type="matrix" values="0 0 0 0 0 0 0 0 0 0 0 0 0 0 0 0 0 0 127 0" result="hardAlpha"/>
<feOffset dy="4"/>
<feGaussianBlur stdDeviation="2"/>
<feComposite in2="hardAlpha" operator="out"/>
<feColorMatrix type="matrix" values="0 0 0 0 0 0 0 0 0 0 0 0 0 0 0 0 0 0 0.25 0"/>
<feBlend mode="normal" in2="BackgroundImageFix" result="effect1_dropShadow_80008_2635"/>
<feBlend mode="normal" in="SourceGraphic" in2="effect1_dropShadow_80008_2635" result="shape"/>
</filter>
</defs>
</svg>
