<svg width="196" height="106" viewBox="0 0 196 106" fill="none" xmlns="http://www.w3.org/2000/svg">
<g filter="url(#filter0_d_80002_4010)">
<rect x="30" y="22" width="136" height="52" rx="26" fill="#56B8FF"/>
<g clip-path="url(#clip0_80002_4010)">
<path d="M72.1273 55.2763H67.8363V50.9403H69.2544C69.614 50.9403 69.8265 50.5317 69.614 50.2374L66.8555 46.4205C66.6798 46.1753 66.3161 46.1753 66.1404 46.4205L63.3819 50.2374C63.1694 50.5317 63.3778 50.9403 63.7415 50.9403H65.1596V55.2763H60.3537C58.2082 55.1578 56.5 53.1512 56.5 50.9771C56.5 49.4773 57.3132 48.1696 58.5188 47.4626C58.4085 47.1643 58.3512 46.8455 58.3512 46.5104C58.3512 44.9779 59.5895 43.7397 61.122 43.7397C61.453 43.7397 61.7718 43.7969 62.0701 43.9072C62.9569 42.0274 64.8694 40.7238 67.0926 40.7238C69.9696 40.7278 72.3398 42.9305 72.6095 45.7381C74.8204 46.1181 76.5 48.1655 76.5 50.4826C76.5 52.9591 74.5711 55.1046 72.1273 55.2763Z" fill="white"/>
</g>
<path d="M87.7564 42.53V49.01C87.7564 49.72 87.9414 50.265 88.3114 50.645C88.6814 51.015 89.2014 51.2 89.8714 51.2C90.5514 51.2 91.0764 51.015 91.4464 50.645C91.8164 50.265 92.0014 49.72 92.0014 49.01V42.53H94.1164V48.995C94.1164 49.885 93.9214 50.64 93.5314 51.26C93.1514 51.87 92.6364 52.33 91.9864 52.64C91.3464 52.95 90.6314 53.105 89.8414 53.105C89.0614 53.105 88.3514 52.95 87.7114 52.64C87.0814 52.33 86.5814 51.87 86.2114 51.26C85.8414 50.64 85.6564 49.885 85.6564 48.995V42.53H87.7564ZM98.2454 45.89C98.5154 45.51 98.8854 45.195 99.3554 44.945C99.8354 44.685 100.38 44.555 100.99 44.555C101.7 44.555 102.34 44.73 102.91 45.08C103.49 45.43 103.945 45.93 104.275 46.58C104.615 47.22 104.785 47.965 104.785 48.815C104.785 49.665 104.615 50.42 104.275 51.08C103.945 51.73 103.49 52.235 102.91 52.595C102.34 52.955 101.7 53.135 100.99 53.135C100.38 53.135 99.8404 53.01 99.3704 52.76C98.9104 52.51 98.5354 52.195 98.2454 51.815V56.96H96.1454V44.69H98.2454V45.89ZM102.64 48.815C102.64 48.315 102.535 47.885 102.325 47.525C102.125 47.155 101.855 46.875 101.515 46.685C101.185 46.495 100.825 46.4 100.435 46.4C100.055 46.4 99.6954 46.5 99.3554 46.7C99.0254 46.89 98.7554 47.17 98.5454 47.54C98.3454 47.91 98.2454 48.345 98.2454 48.845C98.2454 49.345 98.3454 49.78 98.5454 50.15C98.7554 50.52 99.0254 50.805 99.3554 51.005C99.6954 51.195 100.055 51.29 100.435 51.29C100.825 51.29 101.185 51.19 101.515 50.99C101.855 50.79 102.125 50.505 102.325 50.135C102.535 49.765 102.64 49.325 102.64 48.815ZM108.411 41.9V53H106.311V41.9H108.411ZM114.176 53.135C113.376 53.135 112.656 52.96 112.016 52.61C111.376 52.25 110.871 51.745 110.501 51.095C110.141 50.445 109.961 49.695 109.961 48.845C109.961 47.995 110.146 47.245 110.516 46.595C110.896 45.945 111.411 45.445 112.061 45.095C112.711 44.735 113.436 44.555 114.236 44.555C115.036 44.555 115.761 44.735 116.411 45.095C117.061 45.445 117.571 45.945 117.941 46.595C118.321 47.245 118.511 47.995 118.511 48.845C118.511 49.695 118.316 50.445 117.926 51.095C117.546 51.745 117.026 52.25 116.366 52.61C115.716 52.96 114.986 53.135 114.176 53.135ZM114.176 51.305C114.556 51.305 114.911 51.215 115.241 51.035C115.581 50.845 115.851 50.565 116.051 50.195C116.251 49.825 116.351 49.375 116.351 48.845C116.351 48.055 116.141 47.45 115.721 47.03C115.311 46.6 114.806 46.385 114.206 46.385C113.606 46.385 113.101 46.6 112.691 47.03C112.291 47.45 112.091 48.055 112.091 48.845C112.091 49.635 112.286 50.245 112.676 50.675C113.076 51.095 113.576 51.305 114.176 51.305ZM119.512 48.815C119.512 47.975 119.677 47.23 120.007 46.58C120.347 45.93 120.802 45.43 121.372 45.08C121.952 44.73 122.597 44.555 123.307 44.555C123.927 44.555 124.467 44.68 124.927 44.93C125.397 45.18 125.772 45.495 126.052 45.875V44.69H128.167V53H126.052V51.785C125.782 52.175 125.407 52.5 124.927 52.76C124.457 53.01 123.912 53.135 123.292 53.135C122.592 53.135 121.952 52.955 121.372 52.595C120.802 52.235 120.347 51.73 120.007 51.08C119.677 50.42 119.512 49.665 119.512 48.815ZM126.052 48.845C126.052 48.335 125.952 47.9 125.752 47.54C125.552 47.17 125.282 46.89 124.942 46.7C124.602 46.5 124.237 46.4 123.847 46.4C123.457 46.4 123.097 46.495 122.767 46.685C122.437 46.875 122.167 47.155 121.957 47.525C121.757 47.885 121.657 48.315 121.657 48.815C121.657 49.315 121.757 49.755 121.957 50.135C122.167 50.505 122.437 50.79 122.767 50.99C123.107 51.19 123.467 51.29 123.847 51.29C124.237 51.29 124.602 51.195 124.942 51.005C125.282 50.805 125.552 50.525 125.752 50.165C125.952 49.795 126.052 49.355 126.052 48.845ZM129.678 48.815C129.678 47.975 129.843 47.23 130.173 46.58C130.513 45.93 130.973 45.43 131.553 45.08C132.133 44.73 132.778 44.555 133.488 44.555C134.028 44.555 134.543 44.675 135.033 44.915C135.523 45.145 135.913 45.455 136.203 45.845V41.9H138.333V53H136.203V51.77C135.943 52.18 135.578 52.51 135.108 52.76C134.638 53.01 134.093 53.135 133.473 53.135C132.773 53.135 132.133 52.955 131.553 52.595C130.973 52.235 130.513 51.73 130.173 51.08C129.843 50.42 129.678 49.665 129.678 48.815ZM136.218 48.845C136.218 48.335 136.118 47.9 135.918 47.54C135.718 47.17 135.448 46.89 135.108 46.7C134.768 46.5 134.403 46.4 134.013 46.4C133.623 46.4 133.263 46.495 132.933 46.685C132.603 46.875 132.333 47.155 132.123 47.525C131.923 47.885 131.823 48.315 131.823 48.815C131.823 49.315 131.923 49.755 132.123 50.135C132.333 50.505 132.603 50.79 132.933 50.99C133.273 51.19 133.633 51.29 134.013 51.29C134.403 51.29 134.768 51.195 135.108 51.005C135.448 50.805 135.718 50.525 135.918 50.165C136.118 49.795 136.218 49.355 136.218 48.845Z" fill="white"/>
</g>
<defs>
<filter id="filter0_d_80002_4010" x="0" y="0" width="196" height="112" filterUnits="userSpaceOnUse" color-interpolation-filters="sRGB">
<feFlood flood-opacity="0" result="BackgroundImageFix"/>
<feColorMatrix in="SourceAlpha" type="matrix" values="0 0 0 0 0 0 0 0 0 0 0 0 0 0 0 0 0 0 127 0" result="hardAlpha"/>
<feOffset dy="8"/>
<feGaussianBlur stdDeviation="15"/>
<feColorMatrix type="matrix" values="0 0 0 0 0.25474 0 0 0 0 0.349438 0 0 0 0 0.8375 0 0 0 0.3 0"/>
<feBlend mode="normal" in2="BackgroundImageFix" result="effect1_dropShadow_80002_4010"/>
<feBlend mode="normal" in="SourceGraphic" in2="effect1_dropShadow_80002_4010" result="shape"/>
</filter>
<clipPath id="clip0_80002_4010">
<rect width="20" height="20" fill="white" transform="translate(56.5 38)"/>
</clipPath>
</defs>
</svg>
